<svg width="16" height="22" viewBox="0 0 16 22" fill="none" xmlns="http://www.w3.org/2000/svg">
<path d="M14 6.895H12C11.45 6.895 11 7.345 11 7.895C11 8.445 11.45 8.895 12 8.895H14V19.895H2V8.895H4C4.55 8.895 5 8.445 5 7.895C5 7.345 4.55 6.895 4 6.895H2C0.9 6.895 0 7.795 0 8.895V19.895C0 20.995 0.9 21.895 2 21.895H14C15.1 21.895 16 20.995 16 19.895V8.895C16 7.795 15.1 6.895 14 6.895Z" fill="#262626"/>
<path d="M8 14.895C8.55 14.895 9 14.445 9 13.895V3.895H10.79C11.24 3.895 11.46 3.355 11.14 3.045L8.35 0.255003C8.15 0.0550034 7.84 0.0550034 7.64 0.255003L4.85 3.045C4.54 3.355 4.76 3.895 5.21 3.895H7V13.895C7 14.445 7.45 14.895 8 14.895Z" fill="#262626"/>
</svg>
