<svg width="12" height="12" viewBox="0 0 12 12" fill="none" xmlns="http://www.w3.org/2000/svg">
<rect width="12" height="12" rx="6" fill="white" fill-opacity="0.5"/>
<path d="M9.14986 2.85511C8.95486 2.66011 8.63986 2.66011 8.44486 2.85511L5.99986 5.29511L3.55486 2.85011C3.35986 2.65511 3.04486 2.65511 2.84986 2.85011C2.65486 3.04511 2.65486 3.36011 2.84986 3.55511L5.29486 6.00011L2.84986 8.44511C2.65486 8.64011 2.65486 8.95511 2.84986 9.15011C3.04486 9.34511 3.35986 9.34511 3.55486 9.15011L5.99986 6.70511L8.44486 9.15011C8.63986 9.34511 8.95486 9.34511 9.14986 9.15011C9.34486 8.95511 9.34486 8.64011 9.14986 8.44511L6.70486 6.00011L9.14986 3.55511C9.33986 3.36511 9.33986 3.04511 9.14986 2.85511Z" fill="#262626"/>
</svg>
