<svg width="38" height="35" viewBox="0 0 38 35" fill="none" xmlns="http://www.w3.org/2000/svg">
<g clip-path="url(#clip0_708_2382)">
<path d="M21.727 31.4624C22.2332 32.2522 22.9155 32.947 23.7601 33.482C26.8557 35.4434 30.9557 34.5241 32.9171 31.4285C33.6701 30.24 33.998 28.9037 33.9418 27.5973C35.1472 27.0902 36.2157 26.2232 36.9687 25.0347C38.9301 21.9391 38.0109 17.8391 34.9153 15.8778C33.9269 15.2512 32.8359 14.9192 31.745 14.8575L26.3486 14.3031L28.627 9.7323L28.7748 9.43468C29.171 8.58413 29.3924 7.63603 29.3924 6.63618C29.3919 2.9707 26.4212 0 22.7562 0C21.3493 0 20.0448 0.438463 18.9713 1.185C17.8978 0.438463 16.5934 0 15.1864 0C11.5214 0 8.55073 2.9707 8.55073 6.63568C8.55073 7.80574 8.85432 8.90514 9.38585 9.8597L11.6026 14.307L6.25539 14.8565C5.16446 14.9182 4.07353 15.2507 3.08512 15.8768C-0.0110008 17.8386 -0.930231 21.9386 1.03116 25.0342C1.78416 26.2227 2.8527 27.0897 4.0581 27.5968C4.00186 28.9033 4.32984 30.24 5.08284 31.428C7.04423 34.5236 11.1442 35.4429 14.2398 33.4815C15.0844 32.9465 15.7667 32.2517 16.2729 31.4619L16.4451 31.1777L18.9997 26.9503L21.5543 31.1777L21.7265 31.4619L21.727 31.4624Z" fill="#89D713"/>
<path opacity="0.5" d="M19.0077 8.1884C18.7335 8.1884 18.511 7.96693 18.5101 7.6927L18.4951 3.62907C18.4941 3.35435 18.7161 3.13039 18.9908 3.1294C19.264 3.1289 19.4895 3.35037 19.4905 3.62509L19.5054 7.68872C19.5064 7.96344 19.2845 8.1874 19.0097 8.1884H19.0077Z" fill="#5AAD02"/>
<path opacity="0.5" d="M5.62189 26.514C5.46562 26.2885 5.52136 25.9794 5.74582 25.8227L9.07734 23.496C9.3028 23.3387 9.61286 23.3935 9.77013 23.6189C9.9264 23.8434 9.87265 24.1544 9.6472 24.3117L6.31567 26.6384C6.09022 26.7956 5.78016 26.7409 5.62289 26.5155L5.62189 26.514V26.514Z" fill="#5AAD02"/>
<path opacity="0.5" d="M28.1975 23.6343C28.3537 23.4088 28.6623 23.3521 28.8883 23.5079L32.2367 25.8097C32.4632 25.9654 32.5204 26.275 32.3651 26.5019C32.2098 26.7269 31.8998 26.7856 31.6728 26.6303L28.3244 24.3285C28.0979 24.1728 28.0407 23.8632 28.196 23.6363L28.197 23.6348L28.1975 23.6343Z" fill="#5AAD02"/>
</g>
<defs>
<clipPath id="clip0_708_2382">
<rect width="38" height="34.5132" fill="white"/>
</clipPath>
</defs>
</svg>
