<svg width="11" height="11" viewBox="0 0 11 11" fill="none" xmlns="http://www.w3.org/2000/svg">
<path d="M10.4876 0.520485C10.1788 0.211735 9.68007 0.211735 9.37132 0.520485L5.50007 4.38382L1.62882 0.512568C1.32007 0.203818 0.821318 0.203818 0.512568 0.512568C0.203818 0.821318 0.203818 1.32007 0.512568 1.62882L4.38382 5.50007L0.512568 9.37132C0.203818 9.68007 0.203818 10.1788 0.512568 10.4876C0.821318 10.7963 1.32007 10.7963 1.62882 10.4876L5.50007 6.61632L9.37132 10.4876C9.68007 10.7963 10.1788 10.7963 10.4876 10.4876C10.7963 10.1788 10.7963 9.68007 10.4876 9.37132L6.61632 5.50007L10.4876 1.62882C10.7884 1.32799 10.7884 0.821319 10.4876 0.520485Z" fill="#262626"/>
</svg>
