<svg width="87" height="87" viewBox="0 0 87 87" fill="none" xmlns="http://www.w3.org/2000/svg">
<g filter="url(#filter0_d_889_1226)">
<path d="M72 39.5C72 55.2401 59.2401 68 43.5 68C27.7599 68 15 55.2401 15 39.5C15 23.7599 27.7599 11 43.5 11C59.2401 11 72 23.7599 72 39.5Z" fill="white"/>
</g>
<g clip-path="url(#clip0_889_1226)">
<path d="M46.7272 53.4624C47.2333 54.2522 47.9156 54.947 48.7602 55.482C51.8558 57.4434 55.9558 56.5241 57.9172 53.4285C58.6702 52.24 58.9982 50.9037 58.9419 49.5973C60.1473 49.0902 61.2159 48.2232 61.9689 47.0347C63.9302 43.9391 63.011 39.8391 59.9154 37.8778C58.927 37.2512 57.8361 36.9192 56.7451 36.8575L51.3487 36.3031L53.6271 31.7323L53.7749 31.4347C54.1711 30.5841 54.3925 29.636 54.3925 28.6362C54.3921 24.9707 51.4213 22 47.7564 22C46.3494 22 45.045 22.4385 43.9715 23.185C42.8979 22.4385 41.5935 22 40.1865 22C36.5216 22 33.5509 24.9707 33.5509 28.6357C33.5509 29.8057 33.8544 30.9051 34.386 31.8597L36.6027 36.307L31.2555 36.8565C30.1646 36.9182 29.0736 37.2507 28.0852 37.8768C24.9891 39.8386 24.0699 43.9386 26.0313 47.0342C26.7843 48.2227 27.8528 49.0897 29.0582 49.5968C29.002 50.9033 29.33 52.24 30.083 53.428C32.0444 56.5236 36.1443 57.4429 39.2399 55.4815C40.0845 54.9465 40.7668 54.2517 41.273 53.4619L41.4452 53.1777L43.9998 48.9503L46.5545 53.1777L46.7267 53.4619L46.7272 53.4624Z" fill="#89D713"/>
<path opacity="0.5" d="M44.0077 30.1884C43.7335 30.1884 43.511 29.9669 43.5101 29.6927L43.4951 25.6291C43.4941 25.3544 43.7161 25.1304 43.9908 25.1294C44.264 25.1289 44.4895 25.3504 44.4905 25.6251L44.5054 29.6887C44.5064 29.9634 44.2845 30.1874 44.0097 30.1884H44.0077Z" fill="#5AAD02"/>
<path opacity="0.5" d="M30.6219 48.514C30.4656 48.2885 30.5214 47.9794 30.7458 47.8227L34.0773 45.496C34.3028 45.3387 34.6129 45.3935 34.7701 45.6189C34.9264 45.8434 34.8727 46.1544 34.6472 46.3117L31.3157 48.6384C31.0902 48.7956 30.7802 48.7409 30.6229 48.5155L30.6219 48.514Z" fill="#5AAD02"/>
<path opacity="0.5" d="M53.1975 45.6343C53.3537 45.4088 53.6623 45.3521 53.8883 45.5079L57.2367 47.8097C57.4632 47.9654 57.5204 48.275 57.3651 48.5019C57.2098 48.7269 56.8998 48.7856 56.6728 48.6303L53.3244 46.3285C53.0979 46.1728 53.0407 45.8632 53.196 45.6363L53.197 45.6348L53.1975 45.6343Z" fill="#5AAD02"/>
</g>
<defs>
<filter id="filter0_d_889_1226" x="0" y="0" width="87" height="87" filterUnits="userSpaceOnUse" color-interpolation-filters="sRGB">
<feFlood flood-opacity="0" result="BackgroundImageFix"/>
<feColorMatrix in="SourceAlpha" type="matrix" values="0 0 0 0 0 0 0 0 0 0 0 0 0 0 0 0 0 0 127 0" result="hardAlpha"/>
<feOffset dy="4"/>
<feGaussianBlur stdDeviation="7.5"/>
<feComposite in2="hardAlpha" operator="out"/>
<feColorMatrix type="matrix" values="0 0 0 0 0 0 0 0 0 0 0 0 0 0 0 0 0 0 0.05 0"/>
<feBlend mode="normal" in2="BackgroundImageFix" result="effect1_dropShadow_889_1226"/>
<feBlend mode="normal" in="SourceGraphic" in2="effect1_dropShadow_889_1226" result="shape"/>
</filter>
<clipPath id="clip0_889_1226">
<rect width="38" height="34.5132" fill="white" transform="translate(25 22)"/>
</clipPath>
</defs>
</svg>
