<svg width="26" height="14" viewBox="0 0 26 14" fill="none" xmlns="http://www.w3.org/2000/svg">
<path d="M3.55809 5.024C3.55809 3.708 4.77609 2.938 6.54009 2.938C8.31809 2.938 9.53609 3.708 9.53609 5.024C9.53609 6.34 8.31809 7.11 6.54009 7.11C4.77609 7.11 3.55809 6.34 3.55809 5.024ZM7.46409 10.708V8.524C9.74609 8.258 11.3561 6.942 11.3561 5.024C11.3561 2.868 9.29809 1.468 6.54009 1.468C3.79609 1.468 1.73809 2.868 1.73809 5.024C1.73809 6.942 3.34809 8.244 5.61609 8.524V10.708H0.716094V12.206H12.3921V10.708H7.46409ZM23.941 3.4H16.899V0.936H15.051V4.856H23.941V3.4ZM16.801 11.352H23.913V7.936H14.925V9.322H22.051V10.05H14.939V13.55H24.277V12.164H16.801V11.352ZM13.609 5.682V7.138H25.285V5.682H13.609Z" fill="#262626"/>
</svg>
